<svg width="104" height="32" viewBox="0 0 104 32" fill="none" xmlns="http://www.w3.org/2000/svg">
<rect x="0.0289331" y="0.0289331" width="31.9421" height="31.3056" rx="3.10741" fill="#211FFE"/>
<rect x="0.0289331" y="0.0289331" width="31.9421" height="31.3056" rx="3.10741" stroke="#0E273C" stroke-width="0.0578662"/>
<path d="M22.0453 10.5815H18.2832V6.55493C17.4845 6.56132 16.6846 6.56004 15.8859 6.55493C15.6993 6.55493 15.6201 6.63288 15.6214 6.81434C15.6226 7.02264 15.6214 7.23221 15.6201 7.44178V7.97721C15.6239 8.46792 15.6469 8.95607 15.7351 9.44039C16.1044 11.4556 17.9471 13.0772 19.984 13.1935C20.568 13.2268 21.1533 13.2216 21.7373 13.2446C21.9699 13.2536 22.0504 13.1616 22.0478 12.929C22.0376 12.1469 22.0376 11.3636 22.044 10.5815H22.0453Z" fill="#FF8811"/>
<path d="M18.7641 22.6537C18.5136 22.5783 18.3041 22.4748 18.1277 22.3495C17.1284 21.6365 17.4057 20.3688 17.3725 19.3171C17.3444 18.42 17.3968 17.5217 17.3929 16.6246C17.3904 15.9192 17.3584 15.1896 17.2332 14.4803C17.2166 14.3308 17.1974 14.1826 17.1706 14.0344C16.9674 12.929 16.3221 11.9437 15.4442 11.2588C15.4442 11.2588 15.4429 11.2588 15.4416 11.2575C15.4045 11.2281 15.3675 11.2 15.3291 11.1719C15.0122 10.9355 14.6659 10.7374 14.2979 10.5879C13.3957 10.2237 12.4296 10.225 11.4725 10.2314C11.3894 10.2314 11.3064 10.2314 11.2233 10.2314C11.2041 10.2314 11.185 10.2314 11.1658 10.2301C11.1351 10.2301 11.1083 10.2301 11.0827 10.2327C11.0035 10.2327 10.9243 10.2327 10.8451 10.2327C10.6623 10.2314 10.5844 10.3106 10.5856 10.4972C10.5908 11.2959 10.592 12.0958 10.5856 12.8945H14.6123C14.6123 15.3595 14.5816 17.8233 14.5816 20.2896C14.5816 20.2921 14.5816 20.2947 14.5816 20.296C14.5867 20.5337 14.5944 20.7713 14.6071 21.009C14.7234 23.046 16.3451 24.8887 18.3603 25.258C18.8446 25.3462 19.334 25.3692 19.8235 25.373H20.3589C20.5685 25.3717 20.7768 25.3692 20.9863 25.3717C21.1691 25.373 21.247 25.2938 21.2457 25.1072C21.2406 24.3085 21.2394 23.5086 21.2457 22.7099C20.4701 22.7099 19.4989 22.876 18.7615 22.6537H18.7641Z" fill="white"/>
<path d="M61.3196 13.0875C60.8242 12.541 60.2181 12.0967 59.5 11.7547C58.7819 11.4127 57.9798 11.2423 57.0913 11.2423H56.1432C55.2547 11.2423 54.4514 11.4139 53.7345 11.7547C53.0164 12.0967 52.4102 12.541 51.9149 13.0875C51.4195 13.6339 51.0349 14.2401 50.7623 14.907C50.4884 15.5728 50.3521 16.2398 50.3521 16.9056V19.2631C50.3521 19.9289 50.4799 20.5959 50.7367 21.2616C50.9923 21.9274 51.3599 22.5299 51.8382 23.0678C52.3165 23.6058 52.9056 24.0415 53.6067 24.375C54.3065 24.7085 55.1013 24.8753 55.9898 24.8753H57.2459C58.1344 24.8753 58.9279 24.7085 59.629 24.375C60.3288 24.0415 60.9191 23.6058 61.3975 23.0678C61.8758 22.5299 62.2434 21.9274 62.499 21.2616C62.7558 20.5959 62.8836 19.9289 62.8836 19.2631V16.9056C62.8836 16.2398 62.7472 15.5728 62.4734 14.907C62.1995 14.2413 61.8161 13.6339 61.3208 13.0875H61.3196ZM60.2436 19.2643C60.2436 19.7938 60.1414 20.2599 59.9357 20.6604C59.7312 21.062 59.4574 21.3992 59.1154 21.673C58.7733 21.9469 58.3851 22.1513 57.9494 22.2877C57.5136 22.424 57.0657 22.4921 56.6044 22.4921C56.1432 22.4921 55.6989 22.424 55.2717 22.2877C54.8445 22.1513 54.4599 21.9456 54.1191 21.673C53.7771 21.4004 53.5044 21.062 53.2987 20.6604C53.0943 20.2587 52.9908 19.7938 52.9908 19.2643V16.9068C52.9908 16.3944 53.0894 15.9379 53.2854 15.5363C53.4813 15.1346 53.7418 14.7926 54.0667 14.5115C54.3917 14.2291 54.7751 14.0161 55.2194 13.8713C55.6636 13.7264 56.1249 13.6534 56.6032 13.6534C57.0816 13.6534 57.5124 13.7216 57.9481 13.8579C58.3839 13.9942 58.7721 14.195 59.1141 14.4604C59.4562 14.7257 59.7288 15.0628 59.9345 15.473C60.139 15.8832 60.2424 16.3615 60.2424 16.908V19.2656L60.2436 19.2643Z" fill="#0E273C"/>
<path d="M67.4709 6.32269H64.8309V24.6708H67.4709V6.32269Z" fill="#0E273C"/>
<path d="M88.0536 12.614C87.6264 12.1442 87.1347 11.7985 86.5797 11.5758C86.0247 11.3543 85.4563 11.2423 84.8757 11.2423C84.0213 11.2423 83.1973 11.4651 82.4025 11.9081C81.6077 12.3523 80.9712 13.0096 80.4928 13.881C80.0827 12.9585 79.5143 12.2878 78.7889 11.8691C78.0623 11.4504 77.2894 11.2411 76.4691 11.2411C75.768 11.2411 75.0852 11.3908 74.4194 11.689C73.7537 11.9884 73.1719 12.4363 72.6765 13.0339L72.2408 11.4967H70.0366V24.6684H72.6765V16.7498C72.6765 16.2374 72.7581 15.7883 72.9199 15.4049C73.0818 15.0203 73.2911 14.6965 73.548 14.4312C73.8048 14.1671 74.103 13.9699 74.445 13.8421C74.787 13.7143 75.1363 13.6498 75.4953 13.6498C75.8544 13.6498 76.2135 13.7179 76.5713 13.8543C76.9303 13.9906 77.2456 14.1963 77.5194 14.4689C77.7921 14.7428 78.0148 15.0799 78.1852 15.4816C78.3556 15.8832 78.442 16.3567 78.442 16.9031V24.6684H81.0819V16.7498C81.0819 16.2374 81.1623 15.7846 81.3254 15.3915C81.4872 14.9984 81.7051 14.6734 81.9789 14.4178C82.2516 14.161 82.5559 13.9699 82.8881 13.8409C83.2216 13.7131 83.5673 13.6486 83.9263 13.6486C84.2854 13.6486 84.6396 13.7167 84.9901 13.853C85.3406 13.9894 85.6474 14.1902 85.9127 14.4555C86.1768 14.7209 86.3947 15.058 86.5663 15.4682C86.7367 15.8783 86.8231 16.3567 86.8231 16.9031V24.6684H89.463V16.9031C89.463 15.9295 89.3352 15.0884 89.0784 14.3788C88.8216 13.6705 88.4796 13.0802 88.0536 12.6104V12.614Z" fill="#0E273C"/>
<path d="M103.276 14.907C103.002 14.2413 102.618 13.6339 102.124 13.0875C101.628 12.541 101.022 12.0967 100.304 11.7547C99.5858 11.4127 98.7825 11.2423 97.8952 11.2423H96.9471C96.0586 11.2423 95.2553 11.4139 94.5384 11.7547C93.8203 12.0967 93.2142 12.541 92.7188 13.0875C92.2235 13.6339 91.8388 14.2401 91.5662 14.907C91.2924 15.5728 91.156 16.2398 91.156 16.9056V19.2631C91.156 19.9289 91.2838 20.5959 91.5406 21.2616C91.7975 21.9274 92.1638 22.5299 92.6421 23.0678C93.1205 23.6058 93.7096 24.0415 94.4106 24.375C95.1105 24.7085 95.9052 24.8753 96.7937 24.8753H98.0498C98.9383 24.8753 99.7319 24.7085 100.433 24.375C101.133 24.0415 101.723 23.6058 102.201 23.0678C102.68 22.5299 103.047 21.9274 103.303 21.2616C103.56 20.5959 103.688 19.9289 103.688 19.2631V16.9056C103.688 16.2398 103.551 15.5728 103.277 14.907H103.276ZM101.046 19.2643C101.046 19.7938 100.944 20.2599 100.738 20.6604C100.534 21.062 100.26 21.3992 99.9181 21.673C99.5761 21.9469 99.1878 22.1513 98.7521 22.2877C98.3163 22.424 97.8685 22.4921 97.4072 22.4921C96.9459 22.4921 96.5016 22.424 96.0744 22.2877C95.6472 22.1513 95.2626 21.9456 94.9218 21.673C94.5798 21.4004 94.3072 21.062 94.1015 20.6604C93.897 20.2587 93.7935 19.7938 93.7935 19.2643V16.9068C93.7935 16.3944 93.8921 15.9379 94.0881 15.5363C94.284 15.1346 94.5445 14.7926 94.8695 14.5115C95.1932 14.2291 95.5778 14.0161 96.0221 13.8713C96.4663 13.7264 96.9276 13.6534 97.4059 13.6534C97.8843 13.6534 98.3151 13.7216 98.7509 13.8579C99.1866 13.9942 99.5749 14.195 99.9169 14.4604C100.259 14.7257 100.532 15.0628 100.737 15.473C100.943 15.8832 101.045 16.3615 101.045 16.908V19.2656L101.046 19.2643Z" fill="#0E273C"/>
<path d="M49.9151 10.9526H46.3319V7.11747C45.5712 7.12355 44.8093 7.12233 44.0486 7.11747C43.8709 7.11747 43.7955 7.19171 43.7967 7.36454C43.7979 7.56293 43.7967 7.76254 43.7955 7.96215V8.47212C43.7991 8.93949 43.821 9.40443 43.905 9.86572C44.2568 11.7851 46.0118 13.3296 47.9519 13.4404C48.5082 13.472 49.0656 13.4672 49.6218 13.4891C49.8433 13.4976 49.92 13.41 49.9176 13.1885C49.9078 12.4436 49.9078 11.6975 49.9139 10.9526H49.9151Z" fill="#0E273C"/>
<path d="M46.7896 22.4507C46.551 22.3789 46.3514 22.2803 46.1835 22.1611C45.2317 21.4819 45.4958 20.2745 45.4641 19.2728C45.4374 18.4184 45.4873 17.5628 45.4836 16.7084C45.4812 16.0365 45.4508 15.3415 45.3315 14.666C45.3156 14.5236 45.2974 14.3824 45.2718 14.2413C45.0783 13.1885 44.4637 12.2501 43.6275 11.5977C43.6275 11.5977 43.6263 11.5977 43.6251 11.5965C43.5898 11.5685 43.5545 11.5417 43.518 11.5149C43.2161 11.2897 42.8863 11.1011 42.5357 10.9587C41.6765 10.6118 40.7563 10.613 39.8447 10.6191C39.7656 10.6191 39.6865 10.6191 39.6074 10.6191C39.5891 10.6191 39.5708 10.6191 39.5526 10.6179C39.5234 10.6179 39.4978 10.6179 39.4735 10.6203C39.398 10.6203 39.3226 10.6203 39.2471 10.6203C39.073 10.6191 38.9988 10.6946 39 10.8723C39.0049 11.633 39.0061 12.3949 39 13.1556H42.8352C42.8352 15.5034 42.8059 17.85 42.8059 20.1991C42.8059 20.2015 42.8059 20.2039 42.8059 20.2051C42.8108 20.4315 42.8181 20.6579 42.8303 20.8843C42.941 22.8244 44.4856 24.5795 46.405 24.9312C46.8663 25.0152 47.3324 25.0371 47.7986 25.0408H48.3085C48.5082 25.0395 48.7065 25.0371 48.9062 25.0396C49.0802 25.0408 49.1544 24.9653 49.1532 24.7876C49.1484 24.0269 49.1471 23.265 49.1532 22.5043C48.4144 22.5043 47.4894 22.6625 46.7871 22.4507H46.7896Z" fill="#0E273C"/>
</svg>
