<svg width="1011" height="186" viewBox="0 0 1011 186" fill="none" xmlns="http://www.w3.org/2000/svg">
<path d="M942.205 134.268L929.184 98.4858L925.161 86.3114L925.585 103.567V134.268H907.27V51.6938H930.984L943.899 86.8408L950.357 105.896L956.815 86.8408L969.624 51.6938H992.808V134.268H974.917V103.567L975.235 86.3114L971.318 98.4858L958.191 134.268H942.205Z" fill="black"/>
<path d="M848.859 118.177C862.622 118.177 873.314 109.178 873.314 92.9809C873.314 76.7836 862.622 67.7852 848.859 67.7852C835.097 67.7852 824.405 76.7836 824.405 92.9809C824.405 109.178 835.097 118.177 848.859 118.177ZM848.859 50C873.42 50 892.581 66.7265 892.581 92.9809C892.581 119.235 873.42 135.962 848.859 135.962C824.299 135.962 805.137 119.235 805.137 92.9809C805.137 66.7265 824.299 50 848.859 50Z" fill="black"/>
<path d="M748.247 118.177C762.009 118.177 772.701 109.178 772.701 92.9809C772.701 76.7836 762.009 67.7852 748.247 67.7852C734.484 67.7852 723.792 76.7836 723.792 92.9809C723.792 109.178 734.484 118.177 748.247 118.177ZM748.247 50C772.807 50 791.969 66.7265 791.969 92.9809C791.969 119.235 772.807 135.962 748.247 135.962C723.686 135.962 704.525 119.235 704.525 92.9809C704.525 66.7265 723.686 50 748.247 50Z" fill="black"/>
<path d="M661.191 51.6938V116.8H699.196V134.268H642.559V51.6938H661.191Z" fill="black"/>
<path d="M577.422 104.414V134.268H558.79V51.6938H600.107C616.304 51.6938 625.196 64.1858 625.196 78.054C625.196 88.958 619.374 99.4386 608.787 103.038L627.737 134.268H605.929L588.885 104.414H577.422ZM577.422 86.9466H597.248C603.706 86.9466 606.353 82.3945 606.353 78.054C606.353 73.396 603.706 69.0556 597.248 69.0556H577.422V86.9466Z" fill="black"/>
<path d="M479.372 51.6938H540.243V69.0556H498.004V83.2414H536.009V100.497H498.004V116.8H542.361V134.268H479.372V51.6938Z" fill="black"/>
<path d="M440.538 69.0556V134.268H421.906V69.0556H397.451V51.6938H464.992V69.0556H440.538Z" fill="black"/>
<path d="M326.801 52L365.23 100.698L364.807 82.7006V52H383.015V134.574H367.03L328.495 85.8765L329.025 103.873V134.574H310.816V52H326.801Z" fill="black"/>
<path d="M292 70H270.632V116.188H292V134.188H230V116.188H252V70H230V52H292V70Z" fill="black"/>
<path d="M107.201 31.7064C102.78 49.7674 96.1797 75.3741 96.1797 93C96.1797 110.626 102.78 136.233 107.201 154.294C108.502 159.608 109.853 165.127 111.239 171.199C111.756 173.462 114.248 174.668 116.33 173.643L131.097 166.374C133.042 165.416 133.703 162.953 132.725 161.017C129.314 154.27 126.525 144.519 123.995 135.674C121.745 127.808 119.7 120.658 117.605 116.974C113.899 110.458 113.146 102.047 112.648 96.4806C112.527 95.1305 112.421 93.9478 112.292 93C112.421 92.0522 112.527 90.8695 112.648 89.5194C113.146 83.9529 113.899 75.5417 117.605 69.0261C119.7 65.3424 121.745 58.1924 123.995 50.3259C126.525 41.4809 129.314 31.7299 132.725 24.9826C133.703 23.0475 133.042 20.5836 131.097 19.6263L116.33 12.357C114.248 11.3324 111.756 12.5383 111.239 14.8007C109.853 20.8734 108.502 26.3914 107.201 31.7064Z" fill="black"/>
<path d="M119.766 92.6422C120.072 85.3466 124.984 77.7774 130.843 71.5308C136.825 65.1523 142.652 62.225 150.018 58.5251C153.656 56.6974 157.67 54.6811 162.263 51.9671C163.664 51.1392 165.485 51.6016 166.284 53.0197L174.584 67.7505C175.327 69.0699 174.916 70.7424 173.596 71.483C170.141 73.4208 165.79 75.3877 161.344 77.3977C150.549 82.2779 139.193 87.4123 138.723 93C139.193 98.5877 150.549 103.722 161.344 108.602C165.79 110.612 170.141 112.579 173.596 114.517C174.916 115.258 175.327 116.93 174.584 118.25L166.284 132.98C165.485 134.398 163.664 134.861 162.263 134.033C157.67 131.319 153.656 129.303 150.018 127.475C142.653 123.775 136.825 120.848 130.843 114.469C124.984 108.223 120.072 100.653 119.766 93.3578L119.751 93.3578C119.751 93.2386 119.752 93.1193 119.755 93C119.752 92.8807 119.751 92.7614 119.751 92.6422L119.766 92.6422Z" fill="black"/>
<path d="M89.6702 93C89.6702 75.3741 83.0697 49.7674 78.6487 31.7064C77.3477 26.3915 75.997 20.8734 74.6106 14.8007C74.0941 12.5383 71.6017 11.3324 69.5203 12.357L54.7529 19.6263C52.8081 20.5836 52.147 23.0475 53.1251 24.9826C56.5354 31.7299 59.3244 41.4806 61.8544 50.3256C64.1045 58.1921 66.1497 65.3424 68.2448 69.0261C71.9505 75.5417 72.7037 83.9529 73.2021 89.5194L73.2021 89.5198C73.323 90.8697 73.4289 92.0524 73.5583 93C73.4289 93.9478 73.323 95.1305 73.2021 96.4806C72.7037 102.047 71.9506 110.458 68.2448 116.974C66.1497 120.658 64.1045 127.808 61.8544 135.674C59.3245 144.519 56.5354 154.27 53.1251 161.017C52.147 162.953 52.8081 165.416 54.7529 166.374L69.5203 173.643C71.6018 174.668 74.0942 173.462 74.6106 171.199C75.9969 165.127 77.3476 159.609 78.6486 154.294C83.0697 136.233 89.6702 110.626 89.6702 93Z" fill="black"/>
<path d="M66.0837 92.6422C65.7781 85.3466 60.8654 77.7774 55.007 71.5309C49.0249 65.1523 43.1975 62.225 35.8322 58.5251C32.1937 56.6974 28.1799 54.6811 23.5867 51.9671C22.1856 51.1392 20.3648 51.6016 19.5658 53.0197L11.2662 67.7505C10.5228 69.0699 10.9334 70.7424 12.2541 71.483C15.7094 73.4208 20.06 75.3877 24.5061 77.3977C35.3006 82.2779 46.6574 87.4123 47.1266 93C46.6574 98.5878 35.3006 103.722 24.5061 108.602C20.06 110.612 15.7094 112.579 12.2541 114.517C10.9335 115.258 10.5228 116.93 11.2662 118.25L19.5658 132.98C20.3648 134.398 22.1856 134.861 23.5868 134.033C28.1799 131.319 32.1937 129.303 35.8322 127.475C43.1975 123.775 49.0249 120.848 55.0071 114.469C60.8654 108.223 65.7781 100.653 66.0837 93.3578L66.0987 93.3578C66.0987 93.2386 66.0975 93.1194 66.095 93C66.0975 92.8807 66.0987 92.7614 66.0987 92.6422L66.0837 92.6422Z" fill="black"/>
</svg>
