<svg width="105" height="28" viewBox="0 0 105 28" fill="none" xmlns="http://www.w3.org/2000/svg">
<path d="M34.0435 0.5H38.9401V27.5H34.0435V0.5Z" fill="#EDEDED"/>
<path d="M56.1107 17.5941C56.1107 14.5001 54.0042 12.4027 51.2416 12.4027C48.4794 12.4027 46.4421 14.5001 46.4421 17.5941C46.4421 20.7224 48.5138 22.7855 51.2416 22.7855C54.0042 22.7855 56.1107 20.7224 56.1107 17.5941ZM61.0489 8.13989L61.0144 27.4609H56.0763V24.5041C54.7641 26.2923 52.7955 27.4609 50.137 27.4609C45.1644 27.4609 41.4695 23.4042 41.4695 17.5941C41.4695 11.7493 45.2333 7.72742 50.1025 7.72742C52.7955 7.72742 54.7986 8.9652 56.1107 10.7871V8.13989H61.0489Z" fill="#EDEDED"/>
<path d="M63.5015 17.5941C63.5015 11.9905 67.6797 7.72742 73.4117 7.72742C78.0391 7.72742 82.1479 10.5122 82.8733 15.3254H77.797C77.21 13.2623 75.4145 12.2654 73.4117 12.2654C70.4072 12.2654 68.4738 14.4658 68.5083 17.5941C68.4738 20.7567 70.4766 22.9228 73.3772 22.9228C75.4145 22.9228 77.21 21.8916 77.797 19.8288H82.8733C82.1134 24.8136 77.9349 27.4609 73.3772 27.4609C67.6797 27.4609 63.5015 23.198 63.5015 17.5941Z" fill="#EDEDED"/>
<path d="M89.8148 15.2565H98.8962C98.3437 13.1937 96.79 11.7843 94.4075 11.7843C91.99 11.7843 90.4363 13.228 89.8148 15.2565ZM104.145 18.8662H89.573C89.8838 21.8919 91.9553 23.4042 94.5109 23.4042C96.4103 23.4042 98.0674 22.5449 98.7236 21.0323H103.834C102.419 25.5013 98.6202 27.4609 94.5454 27.4609C88.6058 27.4609 84.5312 23.267 84.5312 17.6284C84.5312 11.9559 88.6403 7.72742 94.442 7.72742C100.727 7.72742 104.628 12.6436 104.145 18.8662Z" fill="#EDEDED"/>
<path d="M0.896729 11V22.0651C0.912506 25.0706 3.42346 27.5 6.43762 27.5H17.4701V18.7467H9.53202L9.47731 11H0.896729Z" fill="url(#paint0_linear_191_1501)"/>
<path d="M11.4565 8.94093L19.4862 8.89675L19.4567 17H28.0299V6.00882C28.0299 2.99871 25.5916 0.512718 22.575 0.5H11.4689L11.4565 8.94093Z" fill="url(#paint1_linear_191_1501)"/>
<defs>
<linearGradient id="paint0_linear_191_1501" x1="-0.64694" y1="26.0095" x2="29.1149" y2="5.42266" gradientUnits="userSpaceOnUse">
<stop stop-color="#FF3A59"/>
<stop offset="4.134e-05" stop-color="#FF3A59"/>
<stop offset="1" stop-color="#FF791B"/>
</linearGradient>
<linearGradient id="paint1_linear_191_1501" x1="-2.24655" y1="23.8867" x2="27.16" y2="3.56231" gradientUnits="userSpaceOnUse">
<stop stop-color="#26FF53"/>
<stop offset="4.134e-05" stop-color="#26FF53"/>
<stop offset="1" stop-color="#0798FF"/>
</linearGradient>
</defs>
</svg>
