<svg width="410" height="107" viewBox="0 0 410 107" fill="none" xmlns="http://www.w3.org/2000/svg">
<path d="M132.407 0.304653H151.889V105.21H132.407V0.304653Z" fill="#212433"/>
<path d="M219.328 67.7434C219.328 55.4821 211.017 47.1701 200.117 47.1701C189.219 47.1701 181.181 55.4821 181.181 67.7434C181.181 80.1407 189.355 88.3167 200.117 88.3167C211.017 88.3167 219.328 80.1407 219.328 67.7434ZM238.811 30.2767L238.675 105.21H219.192V95.1274C214.015 102.214 206.248 106.845 195.759 106.845C176.14 106.845 161.562 90.7687 161.562 67.7434C161.562 44.5807 176.412 28.6421 195.623 28.6421C206.248 28.6421 214.151 33.5474 219.328 40.7674V30.2767H238.811Z" fill="#212433"/>
<path d="M248.488 67.7434C248.488 45.5367 264.973 28.6421 287.588 28.6421C305.845 28.6421 322.056 39.6781 324.918 58.7527H304.89C302.574 50.5767 295.49 46.6261 287.588 46.6261C275.734 46.6261 268.106 55.3461 268.242 67.7434C268.106 80.2767 276.008 88.8607 287.452 88.8607C295.49 88.8607 302.574 84.7741 304.89 76.5994H324.918C321.92 96.3541 305.434 106.845 287.452 106.845C264.973 106.845 248.488 89.9514 248.488 67.7434Z" fill="#212433"/>
<path d="M352.306 58.4794H388.136C385.956 50.3047 379.826 44.7194 370.426 44.7194C360.888 44.7194 354.758 50.4407 352.306 58.4794ZM408.846 72.7847H351.352C352.578 84.7754 360.751 90.7687 370.834 90.7687C378.328 90.7687 384.866 87.3634 387.455 81.3687H407.619C402.034 99.0794 387.047 106.845 370.97 106.845C347.536 106.845 331.46 90.2247 331.46 67.8794C331.46 45.3994 347.672 28.6421 370.562 28.6421C395.358 28.6421 410.752 48.1247 408.846 72.7847Z" fill="#212433"/>
<path d="M0 40.92L0.242676 85.0013C0.305342 96.9746 10.036 106.653 22.008 106.653H65.828V71.7813H34.2987L34.0814 40.92H0Z" fill="url(#paint0_linear_1377_323)"/>
<path d="M41.3945 33.6277L73.3145 33.4517L73.1972 65.7344H107.278V21.9464C107.278 9.95437 97.5852 0.225028 85.5932 0.174361L41.4438 -0.000280913L41.3945 33.6277Z" fill="url(#paint1_linear_1377_323)"/>
<defs>
<linearGradient id="paint0_linear_1377_323" x1="-6.13133" y1="100.715" x2="112.309" y2="19.0323" gradientUnits="userSpaceOnUse">
<stop stop-color="#FF3A59"/>
<stop offset="4.134e-05" stop-color="#FF3A59"/>
<stop offset="1" stop-color="#FF791B"/>
</linearGradient>
<linearGradient id="paint1_linear_1377_323" x1="-13.079" y1="93.1704" x2="103.984" y2="12.4377" gradientUnits="userSpaceOnUse">
<stop stop-color="#26FF53"/>
<stop offset="4.134e-05" stop-color="#26FF53"/>
<stop offset="1" stop-color="#0798FF"/>
</linearGradient>
</defs>
</svg>
